<svg xmlns="http://www.w3.org/2000/svg" xmlns:xlink="http://www.w3.org/1999/xlink" width="110" zoomAndPan="magnify" viewBox="0 0 82.5 30.000001" height="40" preserveAspectRatio="xMidYMid meet" version="1.0"><defs><g/></defs><g fill="#002d77" fill-opacity="1"><g transform="translate(2.435024, 20.810852)"><g><path d="M 1.515625 0 L 1.515625 -11.59375 L 4.71875 -11.59375 C 8.8125 -11.59375 10.859375 -9.707031 10.859375 -5.9375 C 10.859375 -4.15625 10.289062 -2.71875 9.15625 -1.625 C 8.019531 -0.539062 6.5 0 4.59375 0 Z M 2.875 -10.375 L 2.875 -1.234375 L 4.609375 -1.234375 C 6.128906 -1.234375 7.3125 -1.640625 8.15625 -2.453125 C 9 -3.265625 9.421875 -4.414062 9.421875 -5.90625 C 9.421875 -8.882812 7.84375 -10.375 4.6875 -10.375 Z M 2.875 -10.375 "/></g></g></g><g fill="#002d77" fill-opacity="1"><g transform="translate(14.05101, 20.810852)"><g><path d="M 8 -3.8125 L 2.15625 -3.8125 C 2.175781 -2.882812 2.421875 -2.171875 2.890625 -1.671875 C 3.367188 -1.171875 4.023438 -0.921875 4.859375 -0.921875 C 5.785156 -0.921875 6.640625 -1.226562 7.421875 -1.84375 L 7.421875 -0.59375 C 6.691406 -0.0703125 5.726562 0.1875 4.53125 0.1875 C 3.363281 0.1875 2.445312 -0.1875 1.78125 -0.9375 C 1.113281 -1.6875 0.78125 -2.742188 0.78125 -4.109375 C 0.78125 -5.398438 1.144531 -6.445312 1.875 -7.25 C 2.601562 -8.0625 3.507812 -8.46875 4.59375 -8.46875 C 5.675781 -8.46875 6.515625 -8.117188 7.109375 -7.421875 C 7.703125 -6.722656 8 -5.75 8 -4.5 Z M 6.640625 -4.9375 C 6.628906 -5.695312 6.441406 -6.289062 6.078125 -6.71875 C 5.722656 -7.144531 5.21875 -7.359375 4.5625 -7.359375 C 3.9375 -7.359375 3.40625 -7.132812 2.96875 -6.6875 C 2.539062 -6.238281 2.273438 -5.65625 2.171875 -4.9375 Z M 6.640625 -4.9375 "/></g></g></g><g fill="#002d77" fill-opacity="1"><g transform="translate(22.714465, 20.810852)"><g><path d="M 7.265625 0 L 5.9375 0 L 5.9375 -1.296875 L 5.90625 -1.296875 C 5.332031 -0.304688 4.484375 0.1875 3.359375 0.1875 C 2.535156 0.1875 1.890625 -0.0234375 1.421875 -0.453125 C 0.960938 -0.890625 0.734375 -1.472656 0.734375 -2.203125 C 0.734375 -3.742188 1.644531 -4.644531 3.46875 -4.90625 L 5.9375 -5.25 C 5.9375 -6.65625 5.367188 -7.359375 4.234375 -7.359375 C 3.234375 -7.359375 2.332031 -7.019531 1.53125 -6.34375 L 1.53125 -7.703125 C 2.34375 -8.210938 3.28125 -8.46875 4.34375 -8.46875 C 6.289062 -8.46875 7.265625 -7.441406 7.265625 -5.390625 Z M 5.9375 -4.1875 L 3.953125 -3.921875 C 3.335938 -3.828125 2.875 -3.671875 2.5625 -3.453125 C 2.25 -3.234375 2.09375 -2.847656 2.09375 -2.296875 C 2.09375 -1.890625 2.234375 -1.554688 2.515625 -1.296875 C 2.804688 -1.046875 3.191406 -0.921875 3.671875 -0.921875 C 4.328125 -0.921875 4.867188 -1.148438 5.296875 -1.609375 C 5.722656 -2.078125 5.9375 -2.660156 5.9375 -3.359375 Z M 5.9375 -4.1875 "/></g></g></g><g fill="#002d77" fill-opacity="1"><g transform="translate(31.143335, 20.810852)"><g><path d="M 2.671875 0 L 1.34375 0 L 1.34375 -12.265625 L 2.671875 -12.265625 Z M 2.671875 0 "/></g></g></g><g fill="#20c975" fill-opacity="1"><g transform="translate(35.157347, 20.810852)"><g><path d="M 9.421875 -8.34375 L 9.25 -7.484375 L 7.140625 -7.484375 L 6.625 -5.0625 L 8.890625 -5.0625 L 8.671875 -4.203125 L 6.453125 -4.203125 L 5.734375 -1 L 4.71875 -1 L 5.421875 -4.203125 L 3.390625 -4.203125 L 2.71875 -1 L 1.703125 -1 L 2.390625 -4.203125 L 0.265625 -4.203125 L 0.421875 -5.0625 L 2.578125 -5.0625 L 3.0625 -7.484375 L 0.828125 -7.484375 L 1 -8.34375 L 3.234375 -8.34375 L 3.921875 -11.59375 L 4.9375 -11.59375 L 4.25 -8.34375 L 6.296875 -8.34375 L 6.984375 -11.59375 L 7.984375 -11.59375 L 7.296875 -8.34375 Z M 6.125 -7.484375 L 4.09375 -7.484375 L 3.5625 -5.0625 L 5.609375 -5.0625 Z M 6.125 -7.484375 "/></g></g></g><g fill="#ff6825" fill-opacity="1"><g transform="translate(44.946661, 20.810852)"><g><path d="M 9.828125 0 L 8.21875 0 L 6.28125 -3.25 C 6.101562 -3.550781 5.925781 -3.804688 5.75 -4.015625 C 5.582031 -4.234375 5.410156 -4.410156 5.234375 -4.546875 C 5.066406 -4.679688 4.878906 -4.78125 4.671875 -4.84375 C 4.472656 -4.90625 4.25 -4.9375 4 -4.9375 L 2.875 -4.9375 L 2.875 0 L 1.515625 0 L 1.515625 -11.59375 L 4.984375 -11.59375 C 5.484375 -11.59375 5.945312 -11.53125 6.375 -11.40625 C 6.8125 -11.28125 7.1875 -11.085938 7.5 -10.828125 C 7.8125 -10.566406 8.054688 -10.242188 8.234375 -9.859375 C 8.410156 -9.472656 8.5 -9.019531 8.5 -8.5 C 8.5 -8.101562 8.4375 -7.734375 8.3125 -7.390625 C 8.195312 -7.054688 8.023438 -6.753906 7.796875 -6.484375 C 7.578125 -6.222656 7.3125 -6 7 -5.8125 C 6.6875 -5.632812 6.332031 -5.492188 5.9375 -5.390625 L 5.9375 -5.359375 C 6.132812 -5.265625 6.300781 -5.160156 6.4375 -5.046875 C 6.582031 -4.941406 6.71875 -4.8125 6.84375 -4.65625 C 6.976562 -4.507812 7.109375 -4.335938 7.234375 -4.140625 C 7.359375 -3.953125 7.5 -3.734375 7.65625 -3.484375 Z M 2.875 -10.375 L 2.875 -6.15625 L 4.71875 -6.15625 C 5.0625 -6.15625 5.375 -6.207031 5.65625 -6.3125 C 5.945312 -6.414062 6.195312 -6.5625 6.40625 -6.75 C 6.625 -6.945312 6.789062 -7.179688 6.90625 -7.453125 C 7.019531 -7.734375 7.078125 -8.046875 7.078125 -8.390625 C 7.078125 -9.015625 6.875 -9.5 6.46875 -9.84375 C 6.070312 -10.195312 5.492188 -10.375 4.734375 -10.375 Z M 2.875 -10.375 "/></g></g></g><g fill="#ff6825" fill-opacity="1"><g transform="translate(54.855842, 20.810852)"><g><path d="M 8 -3.8125 L 2.15625 -3.8125 C 2.175781 -2.882812 2.421875 -2.171875 2.890625 -1.671875 C 3.367188 -1.171875 4.023438 -0.921875 4.859375 -0.921875 C 5.785156 -0.921875 6.640625 -1.226562 7.421875 -1.84375 L 7.421875 -0.59375 C 6.691406 -0.0703125 5.726562 0.1875 4.53125 0.1875 C 3.363281 0.1875 2.445312 -0.1875 1.78125 -0.9375 C 1.113281 -1.6875 0.78125 -2.742188 0.78125 -4.109375 C 0.78125 -5.398438 1.144531 -6.445312 1.875 -7.25 C 2.601562 -8.0625 3.507812 -8.46875 4.59375 -8.46875 C 5.675781 -8.46875 6.515625 -8.117188 7.109375 -7.421875 C 7.703125 -6.722656 8 -5.75 8 -4.5 Z M 6.640625 -4.9375 C 6.628906 -5.695312 6.441406 -6.289062 6.078125 -6.71875 C 5.722656 -7.144531 5.21875 -7.359375 4.5625 -7.359375 C 3.9375 -7.359375 3.40625 -7.132812 2.96875 -6.6875 C 2.539062 -6.238281 2.273438 -5.65625 2.171875 -4.9375 Z M 6.640625 -4.9375 "/></g></g></g><g fill="#ff6825" fill-opacity="1"><g transform="translate(63.519296, 20.810852)"><g><path d="M 2.703125 -1.203125 L 2.671875 -1.203125 L 2.671875 3.8125 L 1.34375 3.8125 L 1.34375 -8.28125 L 2.671875 -8.28125 L 2.671875 -6.828125 L 2.703125 -6.828125 C 3.347656 -7.921875 4.300781 -8.46875 5.5625 -8.46875 C 6.632812 -8.46875 7.46875 -8.097656 8.0625 -7.359375 C 8.65625 -6.617188 8.953125 -5.628906 8.953125 -4.390625 C 8.953125 -3.003906 8.613281 -1.894531 7.9375 -1.0625 C 7.269531 -0.226562 6.351562 0.1875 5.1875 0.1875 C 4.113281 0.1875 3.285156 -0.273438 2.703125 -1.203125 Z M 2.671875 -4.53125 L 2.671875 -3.375 C 2.671875 -2.695312 2.890625 -2.117188 3.328125 -1.640625 C 3.773438 -1.160156 4.34375 -0.921875 5.03125 -0.921875 C 5.832031 -0.921875 6.460938 -1.226562 6.921875 -1.84375 C 7.378906 -2.457031 7.609375 -3.3125 7.609375 -4.40625 C 7.609375 -5.332031 7.394531 -6.054688 6.96875 -6.578125 C 6.539062 -7.097656 5.960938 -7.359375 5.234375 -7.359375 C 4.460938 -7.359375 3.84375 -7.085938 3.375 -6.546875 C 2.90625 -6.015625 2.671875 -5.34375 2.671875 -4.53125 Z M 2.671875 -4.53125 "/></g></g></g><g fill="#ff6825" fill-opacity="1"><g transform="translate(73.258605, 20.810852)"><g><path d="M 5.1875 -0.078125 C 4.875 0.0859375 4.460938 0.171875 3.953125 0.171875 C 2.492188 0.171875 1.765625 -0.632812 1.765625 -2.25 L 1.765625 -7.15625 L 0.34375 -7.15625 L 0.34375 -8.28125 L 1.765625 -8.28125 L 1.765625 -10.296875 L 3.09375 -10.734375 L 3.09375 -8.28125 L 5.1875 -8.28125 L 5.1875 -7.15625 L 3.09375 -7.15625 L 3.09375 -2.484375 C 3.09375 -1.929688 3.1875 -1.535156 3.375 -1.296875 C 3.5625 -1.054688 3.875 -0.9375 4.3125 -0.9375 C 4.644531 -0.9375 4.9375 -1.03125 5.1875 -1.21875 Z M 5.1875 -0.078125 "/></g></g></g></svg>